<?xml version="1.0" encoding="UTF-8" standalone="no"?>
<svg
   width="512"
   height="512"
   viewBox="0 0 1024 1024"
   version="1.1"
   id="svg6"
   xmlns="http://www.w3.org/2000/svg"
   xmlns:svg="http://www.w3.org/2000/svg">
  <defs
     id="defs10" />
  <path
     fill="#3a76f0"
     d="M 0,0 V 1024 H 1024 V 0 Z"
     id="path2" />
  <path
     fill="#ffffff"
     d="m 427.5,170.3 7.9,32 A 319.6,319.6 0 0 0 347,238.9 l -16.9,-28.3 a 347.6,347.6 0 0 1 97.4,-40.3 z m 169,0 -7.9,32 a 319.6,319.6 0 0 1 88.4,36.6 l 17.1,-28.3 A 350.1,350.1 0 0 0 596.5,170.3 Z M 210.6,330 a 349.5,349.5 0 0 0 -40.3,97.5 l 32,7.9 A 319.6,319.6 0 0 1 238.9,347 Z M 193,512 a 318.5,318.5 0 0 1 3.6,-47.8 l -32.6,-5 a 352,352 0 0 0 0,105.5 l 32.6,-4.9 A 319.5,319.5 0 0 1 193,512 Z M 693.9,813.3 677,785.1 a 317.8,317.8 0 0 1 -88.3,36.6 l 7.9,32 a 350.3,350.3 0 0 0 97.3,-40.4 z M 831,512 a 319.5,319.5 0 0 1 -3.6,47.8 l 32.6,4.9 a 352,352 0 0 0 0,-105.5 l -32.6,5 A 318.5,318.5 0 0 1 831,512 Z m 22.7,84.4 -32,-7.9 A 319,319 0 0 1 785.1,677 l 28.3,17 a 348.9,348.9 0 0 0 40.3,-97.6 z m -293.9,231 a 319.1,319.1 0 0 1 -95.6,0 l -4.9,32.6 a 351.3,351.3 0 0 0 105.4,0 z m 209,-126.2 a 318.1,318.1 0 0 1 -67.6,67.5 l 19.6,26.6 A 355.1,355.1 0 0 0 795.4,721 Z m -67.6,-446 a 318.6,318.6 0 0 1 67.6,67.6 L 795.4,303 A 354.6,354.6 0 0 0 721,228.6 Z m -446,67.6 a 318.6,318.6 0 0 1 67.6,-67.6 L 303,228.6 A 354.6,354.6 0 0 0 228.6,303 Z m 558.2,7.2 -28.3,17 a 317.8,317.8 0 0 1 36.6,88.3 l 32,-7.9 A 348.9,348.9 0 0 0 813.4,330 Z M 464.2,196.6 a 319.1,319.1 0 0 1 95.6,0 l 4.9,-32.6 a 351.3,351.3 0 0 0 -105.4,0 z m -192.1,607.5 -68.1,15.8 15.9,-68.1 -32.1,-7.5 -15.9,68.1 a 33,33 0 0 0 24.6,39.7 34.5,34.5 0 0 0 15,0 l 68.1,-15.7 z m -77.5,-89.2 32.2,7.4 11,-47.2 a 316.2,316.2 0 0 1 -35.5,-86.6 l -32,7.9 a 353.3,353.3 0 0 0 32.4,83.7 z m 154,71.4 -47.2,11 7.5,32.2 34.7,-8.1 a 349,349 0 0 0 83.7,32.4 l 7.9,-32 A 316.7,316.7 0 0 1 348.9,786.1 Z M 512,226 C 354,226.1 226.1,354.2 226.1,512.1 a 286.7,286.7 0 0 0 43.9,152 L 242.5,781.5 359.8,754 C 493.5,838.1 670.1,798 754.2,664.4 838.3,530.8 798.3,354.2 664.7,270"
     id="path4" />
</svg>
